<svg width="155" height="155" viewBox="0 0 155 155" fill="none" xmlns="http://www.w3.org/2000/svg">
<path d="M53.0044 61.5508C31.389 89.945 14.2429 70.0556 22.5795 51.0814C22.5928 50.9327 21.4856 51.6953 21.4445 51.8389C16.1439 63.1993 19.7299 85.1443 40.3044 78.2505C49.0093 74.1871 51.1084 69.3115 58.7046 58.425C54.9178 65.2413 52.5822 78.9837 56.6082 81.3268C63.2107 85.1694 76.6686 65.7871 86.5993 50.5359C81.4112 59.9104 77.5632 72.7471 76.4079 82.4004L80.2156 75.1621C83.8794 61.5338 90.7211 47.4198 97.0038 39.7152C97.5149 39.0885 96.9759 38.0742 96.1729 38.194C94.7534 38.4058 93.1171 38.6617 92.3189 38.8283C90.197 39.2712 88.1296 40.3166 87.1896 42.2569C80.8297 55.3848 70.3274 76.0837 60.3719 78.2506C59.1648 78.5134 57.7234 77.9054 57.1801 76.8041C56.9674 76.3731 56.8911 76.2337 56.7989 75.7624C55.8832 71.0778 61.5791 56.3161 65.5387 47.6615L73.6471 28.3637C73.7428 28.1561 73.5625 27.9445 73.3468 28.0238C72.6419 28.2827 71.4014 28.891 70.6568 30.1374C65.0041 39.5997 62.4662 48.0767 56.1972 57.1485C54.9114 59.0091 53.7716 60.5913 53.0044 61.5508Z" fill="black"/>
<path d="M113.362 85.4654C112.439 93.4101 109.703 100.306 105.152 106.154C100.608 111.949 95.9093 115.348 91.0572 116.351C89.6293 116.672 88.285 116.759 87.0242 116.612C83.5755 116.212 80.9338 114.04 79.0992 110.099C77.2646 106.157 76.6726 101.386 77.3231 95.7878C78.1842 88.3763 80.6581 82.4492 84.7447 78.0064C86.7233 75.8365 88.9282 74.279 91.3593 73.3338C91.6592 73.2173 91.8562 73.6145 91.6041 73.8145C88.5454 76.2422 86.1765 79.5677 83.7239 84.2337C81.2113 89.0139 80.0274 94.8321 79.4636 99.6842C78.6892 106.349 79.8747 110.864 83.02 113.229C84.052 114.051 85.2169 114.538 86.5148 114.689C87.8498 114.844 89.2312 114.761 90.659 114.441C93.2365 113.93 96.0153 112.01 98.9953 108.681C101.981 105.3 104.578 101.224 106.786 96.455C108.994 91.6858 110.349 87.1418 110.851 82.8228C111.507 77.1709 110.829 72.8229 108.815 69.7788C107.109 67.311 104.75 66.557 101.561 66.1865C101.079 66.1305 100.557 66.0968 99.9945 66.0855C95.8349 65.9805 91.8016 67.5384 87.8945 70.7591C85.0384 73.0212 82.3208 75.0105 79.9676 78.67C78.8558 80.3989 77.256 83.4974 76.5844 86.5257C76.518 86.8251 76.1165 86.8398 76.0808 86.5352C76.0024 85.8672 76.0223 85.2496 76.0872 84.691C76.5333 80.852 76.8729 80.7394 78.8578 77.2413C80.886 73.6942 83.4628 71.3791 86.4116 68.9656C88.4888 67.2616 90.7791 65.9875 93.2825 65.1436C95.8292 64.2506 98.1996 63.9045 100.394 64.1054C104.955 64.6354 108.367 66.1873 110.808 70.0915C113.248 73.9957 114.1 79.1203 113.362 85.4654Z" fill="black"/>
<path fill-rule="evenodd" clip-rule="evenodd" d="M45.91 25.6745C56.2897 19.1894 68.3735 15.961 80.6044 16.4054C92.8354 16.8498 104.653 20.9465 114.535 28.1678C124.416 35.389 131.909 45.4039 136.048 56.922L137.249 56.4903C133.024 44.7323 125.376 34.5088 115.288 27.1371C105.2 19.7654 93.1366 15.5833 80.6508 15.1296C68.165 14.676 55.8295 17.9716 45.2336 24.5918C34.6377 31.2121 26.267 40.8535 21.2 52.274C17.6721 61.1396 20.4155 72.7989 20.4155 66.6264C20.4155 64.9972 20.261 62.0667 20.4155 61.1396C20.4155 57.0246 21.1098 55.0281 22.2002 52.5704C27.1638 41.3831 35.5304 32.1596 45.91 25.6745Z" fill="black"/>
<path d="M65.9605 137.65C53.9754 135.169 43.0077 129.157 34.4706 120.387C28.5269 114.281 23.9509 107.033 20.9913 99.1278C20.6005 98.0839 20.181 96.5301 19.845 95.4459C19.7577 95.1642 19.5684 95.2204 19.62 95.5108L20.1019 98.2261C20.5518 100.761 21.2506 103.256 22.3997 105.56C25.2684 111.312 29.0224 116.62 33.5558 121.277C42.2708 130.23 53.467 136.368 65.7017 138.9C77.9365 141.432 90.6491 140.242 102.202 135.484L101.716 134.304C90.3987 138.965 77.9455 140.13 65.9605 137.65Z" fill="black"/>
<path d="M131.539 77.4295L139.201 76.2506L139.165 75.5473L132.452 73.2299L138.891 70.2449L138.855 69.5527L131.112 69.1689L131.144 69.7717L137.874 70.0623L131.19 73.2726L131.193 73.3284L138.16 75.823L131.508 76.8267L131.539 77.4295Z" fill="black"/>
<path d="M130.571 88.2524L138.738 86.2484L138.792 85.9174L131.691 81.4132L131.588 82.042L133.716 83.3646L133.122 86.9938L130.685 87.5575L130.571 88.2524ZM133.712 86.8524L134.232 83.6755L137.866 85.9017L133.712 86.8524Z" fill="black"/>
<path d="M127.905 97.5809L133.445 96.0177L135.246 99.9574L135.508 99.2203L133.33 94.5764L136.731 95.7874L136.933 95.2188L129.667 92.6317L129.465 93.2003L132.677 94.3439L133.215 95.4968L128.16 96.8649L127.905 97.5809Z" fill="black"/>
<path d="M124.497 104.739L124.976 105.005L126.757 101.801L129.62 103.392L127.975 106.352L128.453 106.618L130.099 103.658L132.541 105.016L130.798 108.152L131.277 108.418L133.313 104.754L126.572 101.007L124.497 104.739Z" fill="black"/>
<path d="M123.181 111.937L123.627 112.274L125.102 110.321L124.656 109.984L123.181 111.937Z" fill="black"/>
<path d="M116.824 119.535L120.038 122.833L120.471 122.411L117.217 119.073C116.812 118.657 116.328 118.145 116.234 117.503C116.147 116.886 116.353 116.248 116.913 115.702C117.473 115.156 118.116 114.967 118.731 115.069C119.37 115.18 119.87 115.677 120.275 116.093L123.529 119.431L123.961 119.01L120.747 115.712C120.138 115.087 119.576 114.558 118.755 114.453C117.958 114.356 117.203 114.639 116.523 115.302C115.842 115.965 115.54 116.712 115.617 117.511C115.701 118.334 116.216 118.91 116.824 119.535Z" fill="black"/>
<path d="M110.549 127.767C110.924 128.323 111.394 128.56 111.983 128.634C112.573 128.709 113.154 128.492 113.757 128.086L115.221 127.099L110.91 120.703L110.41 121.041L112.421 124.025L111.458 124.675C110.855 125.081 110.436 125.539 110.284 126.113C110.132 126.688 110.175 127.211 110.549 127.767ZM111.078 127.411C110.465 126.503 110.939 125.685 111.745 125.142L112.728 124.479L114.415 126.982L113.432 127.644C112.626 128.188 111.69 128.32 111.078 127.411Z" fill="black"/>
</svg>
